<?xml version="1.0" standalone="no"?>
<!DOCTYPE svg PUBLIC "-//W3C//DTD SVG 20010904//EN"
 "http://www.w3.org/TR/2001/REC-SVG-20010904/DTD/svg10.dtd">
<svg version="1.0" xmlns="http://www.w3.org/2000/svg"
 width="416.000000pt" height="121.000000pt" viewBox="0 0 416.000000 121.000000"
 preserveAspectRatio="xMidYMid meet">
<metadata>
Created by potrace 1.16, written by Peter Selinger 2001-2019
</metadata>
<g transform="translate(0.000000,121.000000) scale(0.100000,-0.100000)"
fill="#000000" stroke="none">
<path d="M64 1157 l-29 -25 -3 -503 c-2 -355 1 -512 9 -531 6 -14 26 -34 45
-43 32 -15 175 -16 1777 -11 958 3 1841 9 1962 12 234 6 267 13 279 56 3 13 5
158 4 323 l-2 300 -6 -305 c-3 -168 -9 -312 -13 -321 -13 -27 -51 -38 -123
-35 -38 2 -115 4 -171 5 l-103 1 0 80 c0 63 3 81 17 88 14 9 14 10 -4 16 -12
4 -24 14 -28 23 -5 14 -2 13 16 -3 18 -15 21 -16 17 -3 -5 12 -1 15 18 11 13
-2 24 -8 24 -13 0 -5 5 -9 11 -9 5 0 7 4 4 10 -3 6 -1 10 4 10 6 0 11 -4 11
-10 0 -16 86 -12 99 4 10 12 8 13 -8 9 -12 -3 -51 -2 -88 2 -53 6 -63 10 -43
16 18 5 7 7 -37 8 -57 1 -63 3 -63 22 0 11 -4 17 -10 14 -5 -3 -8 0 -5 7 3 7
-2 33 -10 58 l-14 45 2 -67 c1 -36 4 -65 8 -62 4 2 10 -3 13 -12 5 -12 2 -15
-10 -10 -11 4 -15 2 -11 -7 4 -10 -8 -14 -49 -16 l-54 -2 5 43 c12 97 23 233
21 264 -1 29 1 31 22 23 13 -5 36 -9 52 -9 31 0 83 24 73 33 -3 4 -1 7 6 7 8
0 11 6 7 16 -4 11 1 18 15 21 17 5 20 11 15 36 -3 16 -7 95 -8 176 l-2 146 -6
-155 -6 -155 -2 156 c-1 112 1 158 10 167 10 10 10 15 -1 21 -8 5 -15 22 -16
38 -2 26 1 30 22 27 49 -5 60 10 13 19 -25 4 -851 10 -1836 14 l-1790 5 -30
-25z m1539 -237 c52 -41 44 -136 -15 -166 -61 -31 -128 13 -128 85 0 82 82
128 143 81z m466 5 c33 -17 41 -33 41 -85 0 -58 -35 -95 -90 -95 -32 0 -47 6
-61 24 -26 32 -25 100 1 134 18 22 30 28 73 36 4 0 21 -6 36 -14z m699 9 c16
-5 22 -13 20 -28 -2 -13 -9 -20 -18 -17 -51 12 -67 -10 -20 -29 80 -33 54
-112 -37 -112 -41 0 -56 12 -47 36 5 13 14 15 40 10 45 -8 44 8 -2 35 -30 18
-35 26 -32 53 4 45 44 66 96 52z m259 -18 c22 -19 28 -33 28 -64 0 -58 -21
-90 -67 -102 -61 -17 -108 22 -108 90 0 84 86 128 147 76z m154 -32 l29 -49 0
46 c0 41 3 47 24 51 25 5 25 4 28 -89 l3 -93 -32 0 c-27 0 -35 7 -62 53 l-30
52 2 -55 c2 -55 1 -56 -24 -52 -25 4 -26 4 -23 95 1 51 2 92 3 92 0 1 13 0 27
0 20 -1 32 -13 55 -51z m-991 -16 l14 -63 14 35 c7 19 11 47 8 62 -5 25 -2 28
19 28 20 0 26 -7 35 -42 19 -73 21 -76 35 -38 8 19 14 45 14 58 1 17 7 22 26
22 14 0 25 -3 25 -7 0 -4 -12 -44 -27 -90 -25 -77 -29 -83 -55 -83 -22 0 -29
6 -36 33 -10 32 -11 31 -27 -19 -3 -10 -14 -14 -32 -12 -25 3 -30 10 -44 63
-32 122 -32 115 -6 115 22 0 26 -7 37 -62z m335 -5 c0 -66 1 -68 25 -68 24 0
25 3 28 68 3 65 4 67 29 67 l26 0 -6 -72 c-7 -79 -22 -104 -72 -114 -22 -4
-38 0 -58 16 -25 20 -27 27 -27 96 l0 74 28 0 c27 0 27 -1 27 -67z m-1749 20
c56 -40 66 -76 66 -251 1 -171 -6 -199 -52 -243 -43 -42 -95 -51 -254 -47
-161 3 -205 18 -241 79 -18 31 -20 52 -20 211 0 197 3 207 76 256 33 22 40 23
214 20 168 -3 182 -5 211 -25z m1254 -274 l37 -11 -9 -41 c-5 -23 -11 -43 -13
-45 -2 -2 -23 3 -47 11 -23 8 -46 13 -50 10 -17 -10 -6 -24 37 -44 25 -12 54
-33 65 -47 61 -77 -26 -172 -143 -158 -74 10 -81 16 -72 65 4 22 10 41 13 41
4 0 25 -7 49 -16 42 -16 80 -13 68 6 -4 6 -28 22 -55 35 -27 14 -54 34 -60 44
-37 71 28 156 124 160 10 1 35 -4 56 -10z m842 -8 c4 -3 2 -25 -5 -49 -10 -37
-14 -42 -32 -36 -11 3 -39 9 -62 11 -40 5 -44 3 -54 -24 -15 -39 -5 -114 17
-130 30 -22 44 -16 44 21 0 36 15 46 73 46 27 0 27 0 27 -69 l0 -70 -57 -11
c-94 -20 -154 0 -194 63 -16 26 -19 46 -17 102 4 93 36 137 113 156 32 8 135
1 147 -10z m-1422 -151 l0 -160 -52 0 -53 0 3 160 3 160 49 0 50 0 0 -160z
m209 80 c23 -44 44 -80 46 -80 2 0 3 35 2 78 l-2 77 47 3 47 3 -1 -160 -1
-161 -56 0 -56 0 -40 78 -40 77 -3 -78 -3 -78 -45 3 -45 3 0 148 c0 81 1 152
1 157 0 6 24 10 53 10 l53 0 43 -80z m671 71 c0 -5 -3 -23 -6 -40 -6 -27 -10
-31 -40 -31 l-34 0 0 -120 0 -120 -50 0 -50 0 0 120 0 120 -33 0 c-42 0 -44 2
-39 45 l4 35 124 0 c68 0 124 -4 124 -9z m199 -28 c6 -21 26 -93 44 -160 l34
-123 -52 0 c-48 0 -53 2 -59 25 -5 21 -12 25 -45 25 -33 0 -40 -4 -45 -25 -6
-23 -11 -25 -57 -25 -45 0 -50 2 -44 17 3 10 25 79 47 153 22 74 42 138 45
143 2 4 31 7 63 7 l59 0 10 -37z m595 27 c28 -10 56 -57 56 -92 0 -13 -11 -40
-25 -60 l-25 -37 32 -46 32 -45 31 97 c17 54 38 119 45 146 l14 47 62 0 c47 0
63 -4 68 -16 3 -9 11 -12 18 -8 10 6 10 4 2 -7 -8 -10 -3 -43 22 -134 18 -66
33 -111 33 -101 1 11 3 17 6 14 3 -3 2 -19 -1 -36 -6 -31 -9 -32 -55 -32 -44
0 -49 3 -55 25 -5 21 -12 25 -45 25 -35 0 -39 -3 -39 -25 0 -25 -1 -25 -82
-25 -46 0 -94 -1 -106 -2 -19 -3 -29 6 -49 45 -33 63 -58 64 -50 2 l7 -45 -55
0 -55 0 0 160 0 160 94 0 c52 0 106 -4 120 -10z"/>
<path d="M404 850 c-63 -20 -69 -36 -72 -207 -5 -239 -1 -243 222 -243 228 0
231 3 231 230 0 133 -3 159 -18 182 -10 14 -26 30 -35 34 -27 11 -294 14 -328
4z m231 -99 c64 -37 90 -142 48 -199 -52 -70 -136 -92 -201 -52 -72 44 -92
129 -47 207 14 23 27 43 28 43 1 0 20 7 42 15 44 16 85 12 130 -14z"/>
<path d="M502 695 c-26 -22 -32 -34 -32 -66 0 -88 93 -122 154 -57 23 26 27
37 22 66 -7 45 -33 71 -77 78 -28 5 -41 1 -67 -21z"/>
</g>
</svg>
